# This file uses centimeters as units for non-parametric coordinates.

mtllib Às±²­·.mtl
g default
v -1.568175 0.550131 0.000000
v -1.491423 0.550131 0.484593
v -1.268680 0.550131 0.921750
v -0.921750 0.550131 1.268680
v -0.484593 0.550131 1.491423
v -0.000000 0.550131 1.568175
v 0.484593 0.550131 1.491423
v 0.921750 0.550131 1.268680
v 1.268680 0.550131 0.921750
v 1.491423 0.550131 0.484593
v 1.568174 0.550131 0.000000
v -3.206272 2.755063 0.221652
v -3.049345 2.755063 1.212444
v -2.593928 2.755063 2.106251
v -1.884599 2.755063 2.815580
v -0.990792 2.755063 3.270997
v 0.000000 2.755063 3.427923
v 0.990792 2.755063 3.270997
v 1.884599 2.755063 2.815580
v 2.593928 2.755063 2.106251
v 3.049345 2.755063 1.212444
v 3.206272 2.755063 0.221652
v -2.035824 1.652597 0.000000
v -1.936184 1.652597 0.629104
v -1.647016 1.652597 1.196628
v -1.196627 1.652597 1.647016
v -0.629104 1.652597 1.936184
v -0.000000 1.652597 2.035824
v 0.629104 1.652597 1.936184
v 1.196627 1.652597 1.647016
v 1.647016 1.652597 1.196628
v 1.936184 1.652597 0.629104
v 2.035824 1.652597 0.000000
vt 0.007907 0.012370
vt 0.106323 0.012370
vt 0.204740 0.012370
vt 0.303156 0.012370
vt 0.401572 0.012370
vt 0.499988 0.012370
vt 0.598404 0.012370
vt 0.696820 0.012370
vt 0.795236 0.012370
vt 0.893653 0.012370
vt 0.992069 0.012370
vt 0.007907 0.988570
vt 0.106323 0.988570
vt 0.204740 0.988570
vt 0.303156 0.988570
vt 0.401572 0.988570
vt 0.499988 0.988570
vt 0.598404 0.988570
vt 0.696820 0.988570
vt 0.795236 0.988570
vt 0.893653 0.988570
vt 0.992069 0.988570
vt 0.007907 0.500470
vt 0.106323 0.500470
vt 0.204740 0.500470
vt 0.303156 0.500470
vt 0.401572 0.500470
vt 0.499988 0.500470
vt 0.598404 0.500470
vt 0.696820 0.500470
vt 0.795236 0.500470
vt 0.893653 0.500470
vt 0.992069 0.500470
vn -0.766199 -0.631040 0.121354
vn -0.725182 -0.648737 0.230762
vn -0.629237 -0.747662 0.212277
vn -0.671029 -0.733774 0.106280
vn -0.607300 -0.663793 0.436538
vn -0.519122 -0.763250 0.384658
vn -0.435706 -0.675255 0.595140
vn -0.368233 -0.774683 0.514073
vn -0.227202 -0.682392 0.694781
vn -0.190666 -0.781619 0.593901
vn 0.000000 -0.684811 0.728721
vn 0.000000 -0.783940 0.620837
vn 0.227202 -0.682392 0.694781
vn 0.190667 -0.781619 0.593901
vn 0.435706 -0.675255 0.595140
vn 0.368233 -0.774683 0.514073
vn 0.607300 -0.663793 0.436538
vn 0.519122 -0.763250 0.384658
vn 0.725182 -0.648737 0.230762
vn 0.629237 -0.747662 0.212277
vn 0.766199 -0.631040 0.121354
vn 0.671029 -0.733774 0.106281
vn -0.910968 -0.386419 0.144283
vn -0.875543 -0.390505 0.284481
vn -0.744782 -0.390505 0.541116
vn -0.541115 -0.390505 0.744782
vn -0.284481 -0.390505 0.875543
vn 0.000000 -0.390505 0.920601
vn 0.284481 -0.390505 0.875543
vn 0.541116 -0.390505 0.744782
vn 0.744782 -0.390505 0.541116
vn 0.875543 -0.390505 0.284481
vn 0.910968 -0.386419 0.144283
s 1
g pCylinder1
usemtl initialShadingGroup
f 23/23/1 24/24/2 13/13/3 12/12/4
f 24/24/2 25/25/5 14/14/6 13/13/3
f 25/25/5 26/26/7 15/15/8 14/14/6
f 26/26/7 27/27/9 16/16/10 15/15/8
f 27/27/9 28/28/11 17/17/12 16/16/10
f 28/28/11 29/29/13 18/18/14 17/17/12
f 29/29/13 30/30/15 19/19/16 18/18/14
f 30/30/15 31/31/17 20/20/18 19/19/16
f 31/31/17 32/32/19 21/21/20 20/20/18
f 32/32/19 33/33/21 22/22/22 21/21/20
f 1/1/23 2/2/24 24/24/2 23/23/1
f 2/2/24 3/3/25 25/25/5 24/24/2
f 3/3/25 4/4/26 26/26/7 25/25/5
f 4/4/26 5/5/27 27/27/9 26/26/7
f 5/5/27 6/6/28 28/28/11 27/27/9
f 6/6/28 7/7/29 29/29/13 28/28/11
f 7/7/29 8/8/30 30/30/15 29/29/13
f 8/8/30 9/9/31 31/31/17 30/30/15
f 9/9/31 10/10/32 32/32/19 31/31/17
f 10/10/32 11/11/33 33/33/21 32/32/19
